<svg width="16" height="16" viewBox="0 0 16 16" fill="none" xmlns="http://www.w3.org/2000/svg">
<path d="M4 1H9V2H4C3.73478 2 3.48043 2.10536 3.29289 2.29289C3.10536 2.48043 3 2.73478 3 3V13C3 13.2652 3.10536 13.5196 3.29289 13.7071C3.48043 13.8946 3.73478 14 4 14H12C12.2652 14 12.5196 13.8946 12.7071 13.7071C12.8946 13.5196 13 13.2652 13 13V6H14V13C14 13.5304 13.7893 14.0391 13.4142 14.4142C13.0391 14.7893 12.5304 15 12 15H4C3.46957 15 2.96086 14.7893 2.58579 14.4142C2.21071 14.0391 2 13.5304 2 13V3C2 2.46957 2.21071 1.96086 2.58579 1.58579C2.96086 1.21071 3.46957 1 4 1V1Z" fill="#005DEE"/>
<path d="M9 4.5V1L14 6H10.5C10.1022 6 9.72064 5.84196 9.43934 5.56066C9.15804 5.27936 9 4.89782 9 4.5Z" fill="#005DEE"/>
</svg>
