<svg width="16" height="16" viewBox="0 0 16 16" fill="none" xmlns="http://www.w3.org/2000/svg">
<path d="M4 1H9V2H4C3.73478 2 3.48043 2.10536 3.29289 2.29289C3.10536 2.48043 3 2.73478 3 3V13C3 13.2652 3.10536 13.5196 3.29289 13.7071C3.48043 13.8946 3.73478 14 4 14H12C12.2652 14 12.5196 13.8946 12.7071 13.7071C12.8946 13.5196 13 13.2652 13 13V6H14V13C14 13.5304 13.7893 14.0391 13.4142 14.4142C13.0391 14.7893 12.5304 15 12 15H4C3.46957 15 2.96086 14.7893 2.58579 14.4142C2.21071 14.0391 2 13.5304 2 13V3C2 2.46957 2.21071 1.96086 2.58579 1.58579C2.96086 1.21071 3.46957 1 4 1V1Z" fill="#005DEE"/>
<path d="M9 4.5V1L14 6H10.5C10.1022 6 9.72064 5.84196 9.43934 5.56066C9.15804 5.27936 9 4.89782 9 4.5Z" fill="#005DEE"/>
<path fill-rule="evenodd" clip-rule="evenodd" d="M8.64592 6.646C8.69236 6.59944 8.74754 6.56249 8.80828 6.53729C8.86903 6.51208 8.93415 6.49911 8.99992 6.49911C9.06568 6.49911 9.13081 6.51208 9.19155 6.53729C9.2523 6.56249 9.30747 6.59944 9.35392 6.646L11.3539 8.646C11.4005 8.69245 11.4374 8.74762 11.4626 8.80837C11.4878 8.86911 11.5008 8.93423 11.5008 9C11.5008 9.06577 11.4878 9.13089 11.4626 9.19163C11.4374 9.25238 11.4005 9.30756 11.3539 9.354L9.35392 11.354C9.26003 11.4479 9.13269 11.5006 8.99992 11.5006C8.86714 11.5006 8.7398 11.4479 8.64592 11.354C8.55203 11.2601 8.49929 11.1328 8.49929 11C8.49929 10.8672 8.55203 10.7399 8.64592 10.646L10.2929 9L8.64592 7.354C8.59935 7.30756 8.56241 7.25238 8.5372 7.19163C8.512 7.13089 8.49902 7.06577 8.49902 7C8.49902 6.93423 8.512 6.86911 8.5372 6.80837C8.56241 6.74762 8.59935 6.69245 8.64592 6.646ZM7.35392 6.646C7.30747 6.59944 7.2523 6.56249 7.19155 6.53729C7.13081 6.51208 7.06568 6.49911 6.99992 6.49911C6.93415 6.49911 6.86903 6.51208 6.80828 6.53729C6.74754 6.56249 6.69236 6.59944 6.64592 6.646L4.64592 8.646C4.59935 8.69245 4.56241 8.74762 4.5372 8.80837C4.512 8.86911 4.49902 8.93423 4.49902 9C4.49902 9.06577 4.512 9.13089 4.5372 9.19163C4.56241 9.25238 4.59935 9.30756 4.64592 9.354L6.64592 11.354C6.7398 11.4479 6.86714 11.5006 6.99992 11.5006C7.13269 11.5006 7.26003 11.4479 7.35392 11.354C7.4478 11.2601 7.50055 11.1328 7.50055 11C7.50055 10.8672 7.4478 10.7399 7.35392 10.646L5.70692 9L7.35392 7.354C7.40048 7.30756 7.43742 7.25238 7.46263 7.19163C7.48784 7.13089 7.50081 7.06577 7.50081 7C7.50081 6.93423 7.48784 6.86911 7.46263 6.80837C7.43742 6.74762 7.40048 6.69245 7.35392 6.646V6.646Z" fill="#005DEE"/>
</svg>
